<svg width="408" height="410" viewBox="0 0 408 410" fill="none" xmlns="http://www.w3.org/2000/svg">
<path fill-rule="evenodd" clip-rule="evenodd" d="M223 58V28H58C25.9675 28 0 53.9675 0 86V352C0 384.033 25.9675 410 58 410H322C354.033 410 380 384.033 380 352V187H350V352C350 367.464 337.464 380 322 380H58C42.536 380 30 367.464 30 352V86C30 70.536 42.536 58 58 58H223Z" fill="black"/>
<path d="M160.222 232.222L152.444 240L168 255.556L175.778 247.778L160.222 232.222ZM408 11C408 4.92486 403.075 -3.98842e-06 397 -3.73238e-06L298 4.40161e-07C291.925 6.96209e-07 287 4.92487 287 11C287 17.0751 291.925 22 298 22L386 22L386 110C386 116.075 390.925 121 397 121C403.075 121 408 116.075 408 110L408 11ZM175.778 247.778L404.778 18.7782L389.222 3.22182L160.222 232.222L175.778 247.778Z" fill="black"/>
</svg>
