<svg width="35" height="35" viewBox="0 0 35 35" fill="none" xmlns="http://www.w3.org/2000/svg">
<path d="M31.7086 17.9827L18.5836 3.39938C18.0309 2.78396 16.9692 2.78396 16.4165 3.39938L3.29152 17.9827C3.1026 18.1921 2.97859 18.4519 2.93458 18.7305C2.89057 19.0091 2.92844 19.2944 3.0436 19.5519C3.27693 20.0783 3.79902 20.4167 4.37506 20.4167H7.29172V30.625C7.29172 31.0118 7.44537 31.3827 7.71886 31.6562C7.99235 31.9297 8.36328 32.0833 8.75006 32.0833H13.1251C13.5118 32.0833 13.8828 31.9297 14.1563 31.6562C14.4297 31.3827 14.5834 31.0118 14.5834 30.625V24.7917H20.4167V30.625C20.4167 31.0118 20.5704 31.3827 20.8439 31.6562C21.1174 31.9297 21.4883 32.0833 21.8751 32.0833H26.2501C26.6368 32.0833 27.0078 31.9297 27.2813 31.6562C27.5547 31.3827 27.7084 31.0118 27.7084 30.625V20.4167H30.6251C30.9075 20.4179 31.1842 20.3369 31.4214 20.1835C31.6585 20.0302 31.846 19.8112 31.9609 19.5532C32.0757 19.2952 32.113 19.0093 32.0683 18.7304C32.0235 18.4516 31.8985 18.1918 31.7086 17.9827V17.9827Z" fill="#030303"/>
</svg>
