<svg width="41" height="45" viewBox="0 0 41 45" fill="none" xmlns="http://www.w3.org/2000/svg">
<path d="M28.7507 24.8372V2.74946C28.7497 2.39113 28.6069 2.04777 28.3535 1.79439C28.1001 1.54101 27.7568 1.3982 27.3984 1.39716H12.0723C11.7139 1.3982 11.3706 1.54101 11.1172 1.79439C10.8638 2.04777 10.721 2.39113 10.72 2.74946V22.5833C10.7218 23.1805 10.9598 23.7528 11.3821 24.175C11.8044 24.5973 12.3766 24.8354 12.9738 24.8372H28.7507Z" stroke="black" stroke-width="1.23368" stroke-linejoin="round"/>
<path d="M21.5385 5.90485H25.1446M21.5385 9.511H25.1446M14.3262 13.1172H25.1446M14.3262 16.7233H25.1446M14.3262 20.3295H25.1446" stroke="black" stroke-width="1.23368" stroke-linecap="round" stroke-linejoin="round"/>
<path d="M18.0826 10.4125H15.0775C14.8782 10.4125 14.6871 10.3334 14.5462 10.1925C14.4053 10.0516 14.3262 9.86051 14.3262 9.66126V6.65613C14.3262 6.45688 14.4053 6.26578 14.5462 6.12489C14.6871 5.984 14.8782 5.90485 15.0775 5.90485H18.0826C18.2818 5.90485 18.4729 5.984 18.6138 6.12489C18.7547 6.26578 18.8339 6.45688 18.8339 6.65613V9.66126C18.8339 9.86051 18.7547 10.0516 18.6138 10.1925C18.4729 10.3334 18.2818 10.4125 18.0826 10.4125Z" fill="black"/>
<path d="M0.114803 43.86V33.7128H1.6458V42.542H6.24374V43.86H0.114803ZM10.0861 44.0284C9.60384 44.0284 9.16783 43.9393 8.77806 43.7609C8.3883 43.5792 8.07945 43.3166 7.85154 42.9731C7.62693 42.6296 7.51462 42.2084 7.51462 41.7097C7.51462 41.2802 7.5972 40.9268 7.76235 40.6494C7.92751 40.3719 8.15047 40.1522 8.43124 39.9904C8.712 39.8285 9.0258 39.7063 9.37263 39.6237C9.71945 39.5412 10.0729 39.4784 10.4329 39.4355C10.8888 39.3826 11.2587 39.3397 11.5428 39.3066C11.8268 39.2703 12.0333 39.2125 12.1621 39.1332C12.2909 39.0539 12.3553 38.9251 12.3553 38.7468V38.7121C12.3553 38.2794 12.2331 37.9441 11.9887 37.7063C11.7476 37.4684 11.3875 37.3495 10.9086 37.3495C10.4098 37.3495 10.0167 37.4602 9.72936 37.6815C9.44529 37.8995 9.24876 38.1423 9.13976 38.4098L7.74749 38.0927C7.91265 37.6303 8.15377 37.257 8.47087 36.973C8.79128 36.6856 9.15957 36.4775 9.57577 36.3487C9.99196 36.2166 10.4296 36.1505 10.8888 36.1505C11.1926 36.1505 11.5147 36.1868 11.8549 36.2595C12.1984 36.3289 12.5188 36.4577 12.8161 36.646C13.1167 36.8342 13.3628 37.1035 13.5544 37.4536C13.746 37.8004 13.8417 38.2513 13.8417 38.8062V43.86H12.395V42.8195H12.3355C12.2397 43.0111 12.096 43.1994 11.9045 43.3843C11.7129 43.5693 11.4668 43.7229 11.1662 43.8451C10.8656 43.9673 10.5056 44.0284 10.0861 44.0284ZM10.4082 42.8393C10.8177 42.8393 11.1679 42.7584 11.4585 42.5965C11.7525 42.4347 11.9755 42.2233 12.1274 41.9623C12.2827 41.6981 12.3603 41.4157 12.3603 41.1151V40.1341C12.3074 40.1869 12.2051 40.2365 12.0531 40.2827C11.9045 40.3256 11.7344 40.3636 11.5428 40.3967C11.3512 40.4264 11.1646 40.4545 10.9829 40.4809C10.8012 40.504 10.6493 40.5238 10.5271 40.5403C10.2397 40.5767 9.9771 40.6378 9.73927 40.7237C9.50475 40.8096 9.31647 40.9334 9.17444 41.0953C9.03571 41.2538 8.96634 41.4652 8.96634 41.7295C8.96634 42.0961 9.10177 42.3736 9.37263 42.5619C9.64348 42.7468 9.98866 42.8393 10.4082 42.8393ZM19.3675 36.2496V37.4387H15.2105V36.2496H19.3675ZM16.3253 34.4263H17.8067V41.6254C17.8067 41.9128 17.8497 42.1291 17.9356 42.2745C18.0214 42.4165 18.1321 42.514 18.2675 42.5668C18.4062 42.6164 18.5565 42.6411 18.7184 42.6411C18.8373 42.6411 18.9414 42.6329 19.0305 42.6164C19.1197 42.5998 19.1891 42.5866 19.2386 42.5767L19.5062 43.8005C19.4203 43.8336 19.2981 43.8666 19.1395 43.8996C18.981 43.936 18.7828 43.9558 18.545 43.9591C18.1552 43.9657 17.7919 43.8963 17.4549 43.751C17.118 43.6056 16.8455 43.381 16.6374 43.0771C16.4293 42.7733 16.3253 42.3917 16.3253 41.9326V34.4263ZM24.2045 44.0136C23.4547 44.0136 22.8089 43.8534 22.2672 43.533C21.7288 43.2093 21.3126 42.7551 21.0186 42.1704C20.7279 41.5825 20.5826 40.8938 20.5826 40.1043C20.5826 39.3248 20.7279 38.6378 21.0186 38.0432C21.3126 37.4486 21.7222 36.9845 22.2474 36.6509C22.7759 36.3173 23.3935 36.1505 24.1004 36.1505C24.5298 36.1505 24.946 36.2215 25.349 36.3636C25.752 36.5056 26.1137 36.7285 26.4341 37.0324C26.7545 37.3363 27.0072 37.731 27.1921 38.2166C27.3771 38.6989 27.4696 39.2852 27.4696 39.9755V40.5007H21.4199V39.3909H26.0179C26.0179 39.0011 25.9386 38.6559 25.7801 38.3553C25.6215 38.0514 25.3985 37.812 25.1112 37.6369C24.8271 37.4618 24.4935 37.3743 24.1103 37.3743C23.6941 37.3743 23.3308 37.4767 23.0203 37.6815C22.7131 37.883 22.4753 38.1472 22.3068 38.4742C22.1417 38.798 22.0591 39.1497 22.0591 39.5296V40.3967C22.0591 40.9053 22.1483 41.3381 22.3266 41.6948C22.5083 42.0515 22.761 42.324 23.0847 42.5123C23.4084 42.6973 23.7866 42.7898 24.2193 42.7898C24.5001 42.7898 24.7561 42.7501 24.9873 42.6709C25.2185 42.5883 25.4184 42.4661 25.5868 42.3042C25.7553 42.1424 25.8841 41.9425 25.9733 41.7047L27.3755 41.9574C27.2632 42.3703 27.0617 42.732 26.771 43.0425C26.4836 43.3497 26.1219 43.5891 25.6859 43.7609C25.2532 43.9294 24.7594 44.0136 24.2045 44.0136ZM34.8162 38.1076L33.4734 38.3454C33.4173 38.1737 33.3281 38.0102 33.2059 37.8549C33.087 37.6997 32.9251 37.5725 32.7203 37.4734C32.5155 37.3743 32.2595 37.3248 31.9523 37.3248C31.5328 37.3248 31.1827 37.4189 30.902 37.6072C30.6212 37.7922 30.4808 38.0316 30.4808 38.3256C30.4808 38.5799 30.5749 38.7847 30.7632 38.94C30.9515 39.0952 31.2554 39.2224 31.6749 39.3215L32.8838 39.599C33.5841 39.7608 34.106 40.0102 34.4495 40.3471C34.793 40.684 34.9648 41.1217 34.9648 41.6601C34.9648 42.1159 34.8327 42.5222 34.5684 42.879C34.3075 43.2324 33.9425 43.5099 33.4734 43.7113C33.0077 43.9128 32.4676 44.0136 31.8533 44.0136C31.001 44.0136 30.3057 43.8319 29.7673 43.4686C29.2289 43.1019 28.8986 42.5817 28.7764 41.9078L30.2083 41.6898C30.2975 42.0631 30.4808 42.3455 30.7583 42.5371C31.0357 42.7254 31.3974 42.8195 31.8433 42.8195C32.3289 42.8195 32.717 42.7188 33.0077 42.5173C33.2984 42.3125 33.4437 42.0631 33.4437 41.7691C33.4437 41.5313 33.3545 41.3314 33.1762 41.1696C33.0011 41.0077 32.7319 40.8855 32.3685 40.8029L31.0803 40.5205C30.3702 40.3587 29.845 40.101 29.5047 39.7476C29.1678 39.3942 28.9994 38.9466 28.9994 38.4049C28.9994 37.9557 29.1249 37.5626 29.3759 37.2257C29.6269 36.8887 29.9738 36.6262 30.4164 36.4379C30.859 36.2463 31.366 36.1505 31.9375 36.1505C32.76 36.1505 33.4074 36.3289 33.8797 36.6856C34.3521 37.039 34.6642 37.513 34.8162 38.1076ZM40.1461 36.2496V37.4387H35.9892V36.2496H40.1461ZM37.104 34.4263H38.5854V41.6254C38.5854 41.9128 38.6284 42.1291 38.7142 42.2745C38.8001 42.4165 38.9108 42.514 39.0462 42.5668C39.1849 42.6164 39.3352 42.6411 39.4971 42.6411C39.616 42.6411 39.72 42.6329 39.8092 42.6164C39.8984 42.5998 39.9678 42.5866 40.0173 42.5767L40.2849 43.8005C40.199 43.8336 40.0768 43.8666 39.9182 43.8996C39.7597 43.936 39.5615 43.9558 39.3237 43.9591C38.9339 43.9657 38.5706 43.8963 38.2336 43.751C37.8967 43.6056 37.6242 43.381 37.4161 43.0771C37.208 42.7733 37.104 42.3917 37.104 41.9326V34.4263Z" fill="black"/>
</svg>
