<svg width="46" height="45" viewBox="0 0 46 45" fill="none" xmlns="http://www.w3.org/2000/svg">
<path d="M0.114803 43.86V33.7128H3.73172C4.52117 33.7128 5.17518 33.8565 5.69377 34.1439C6.21236 34.4312 6.60048 34.8243 6.85812 35.3231C7.11577 35.8185 7.24459 36.3768 7.24459 36.9978C7.24459 37.622 7.11412 38.1836 6.85317 38.6823C6.59553 39.1778 6.20576 39.5709 5.68387 39.8616C5.16528 40.1489 4.51291 40.2926 3.72677 40.2926H1.23952V38.9945H3.58804C4.08681 38.9945 4.49144 38.9086 4.80193 38.7368C5.11243 38.5618 5.34034 38.324 5.48568 38.0234C5.63101 37.7228 5.70368 37.3809 5.70368 36.9978C5.70368 36.6146 5.63101 36.2744 5.48568 35.9771C5.34034 35.6798 5.11077 35.4469 4.79698 35.2785C4.48648 35.11 4.0769 35.0258 3.56822 35.0258H1.6458V43.86H0.114803ZM10.402 39.3413V43.86H8.92051V33.7128H10.3821V37.4883H10.4763C10.6546 37.0787 10.9272 36.7533 11.2938 36.5122C11.6604 36.2711 12.1394 36.1505 12.7307 36.1505C13.2526 36.1505 13.7084 36.2579 14.0982 36.4726C14.4912 36.6873 14.7951 37.0077 15.0098 37.4338C15.2278 37.8566 15.3368 38.3851 15.3368 39.0193V43.86H13.8554V39.1976C13.8554 38.6394 13.7117 38.2067 13.4243 37.8995C13.1369 37.589 12.7373 37.4338 12.2253 37.4338C11.8752 37.4338 11.5614 37.5081 11.2839 37.6567C11.0097 37.8054 10.7934 38.0234 10.6348 38.3107C10.4796 38.5948 10.402 38.9383 10.402 39.3413ZM20.5194 44.0136C19.8059 44.0136 19.1833 43.8501 18.6515 43.5231C18.1197 43.1961 17.7068 42.7386 17.4128 42.1506C17.1189 41.5627 16.9719 40.8756 16.9719 40.0895C16.9719 39.3 17.1189 38.6097 17.4128 38.0184C17.7068 37.4272 18.1197 36.968 18.6515 36.641C19.1833 36.314 19.8059 36.1505 20.5194 36.1505C21.2329 36.1505 21.8555 36.314 22.3873 36.641C22.9191 36.968 23.332 37.4272 23.626 38.0184C23.92 38.6097 24.067 39.3 24.067 40.0895C24.067 40.8756 23.92 41.5627 23.626 42.1506C23.332 42.7386 22.9191 43.1961 22.3873 43.5231C21.8555 43.8501 21.2329 44.0136 20.5194 44.0136ZM20.5244 42.77C20.9868 42.77 21.37 42.6477 21.6739 42.4033C21.9777 42.1589 22.2024 41.8335 22.3477 41.4272C22.4963 41.021 22.5707 40.5734 22.5707 40.0845C22.5707 39.599 22.4963 39.153 22.3477 38.7468C22.2024 38.3372 21.9777 38.0085 21.6739 37.7608C21.37 37.513 20.9868 37.3892 20.5244 37.3892C20.0586 37.3892 19.6722 37.513 19.365 37.7608C19.0611 38.0085 18.8348 38.3372 18.6862 38.7468C18.5408 39.153 18.4682 39.599 18.4682 40.0845C18.4682 40.5734 18.5408 41.021 18.6862 41.4272C18.8348 41.8335 19.0611 42.1589 19.365 42.4033C19.6722 42.6477 20.0586 42.77 20.5244 42.77ZM29.2731 36.2496V37.4387H25.1161V36.2496H29.2731ZM26.2309 34.4263H27.7124V41.6254C27.7124 41.9128 27.7553 42.1291 27.8412 42.2745C27.9271 42.4165 28.0377 42.514 28.1732 42.5668C28.3119 42.6164 28.4622 42.6411 28.624 42.6411C28.743 42.6411 28.847 42.6329 28.9362 42.6164C29.0254 42.5998 29.0947 42.5866 29.1443 42.5767L29.4118 43.8005C29.326 43.8336 29.2037 43.8666 29.0452 43.8996C28.8866 43.936 28.6884 43.9558 28.4506 43.9591C28.0609 43.9657 27.6975 43.8963 27.3606 43.751C27.0237 43.6056 26.7512 43.381 26.5431 43.0771C26.335 42.7733 26.2309 42.3917 26.2309 41.9326V34.4263ZM34.0358 44.0136C33.3223 44.0136 32.6997 43.8501 32.1679 43.5231C31.6361 43.1961 31.2232 42.7386 30.9292 42.1506C30.6352 41.5627 30.4882 40.8756 30.4882 40.0895C30.4882 39.3 30.6352 38.6097 30.9292 38.0184C31.2232 37.4272 31.6361 36.968 32.1679 36.641C32.6997 36.314 33.3223 36.1505 34.0358 36.1505C34.7493 36.1505 35.3719 36.314 35.9037 36.641C36.4355 36.968 36.8484 37.4272 37.1424 38.0184C37.4364 38.6097 37.5833 39.3 37.5833 40.0895C37.5833 40.8756 37.4364 41.5627 37.1424 42.1506C36.8484 42.7386 36.4355 43.1961 35.9037 43.5231C35.3719 43.8501 34.7493 44.0136 34.0358 44.0136ZM34.0407 42.77C34.5032 42.77 34.8863 42.6477 35.1902 42.4033C35.4941 42.1589 35.7187 41.8335 35.8641 41.4272C36.0127 41.021 36.087 40.5734 36.087 40.0845C36.087 39.599 36.0127 39.153 35.8641 38.7468C35.7187 38.3372 35.4941 38.0085 35.1902 37.7608C34.8863 37.513 34.5032 37.3892 34.0407 37.3892C33.575 37.3892 33.1885 37.513 32.8813 37.7608C32.5775 38.0085 32.3512 38.3372 32.2026 38.7468C32.0572 39.153 31.9846 39.599 31.9846 40.0845C31.9846 40.5734 32.0572 41.021 32.2026 41.4272C32.3512 41.8335 32.5775 42.1589 32.8813 42.4033C33.1885 42.6477 33.575 42.77 34.0407 42.77ZM44.9398 38.1076L43.5971 38.3454C43.5409 38.1737 43.4517 38.0102 43.3295 37.8549C43.2106 37.6997 43.0488 37.5725 42.844 37.4734C42.6392 37.3743 42.3832 37.3248 42.076 37.3248C41.6565 37.3248 41.3064 37.4189 41.0256 37.6072C40.7448 37.7922 40.6045 38.0316 40.6045 38.3256C40.6045 38.5799 40.6986 38.7847 40.8869 38.94C41.0752 39.0952 41.379 39.2224 41.7985 39.3215L43.0075 39.599C43.7077 39.7608 44.2296 40.0102 44.5732 40.3471C44.9167 40.684 45.0884 41.1217 45.0884 41.6601C45.0884 42.1159 44.9563 42.5222 44.6921 42.879C44.4311 43.2324 44.0661 43.5099 43.5971 43.7113C43.1313 43.9128 42.5913 44.0136 41.9769 44.0136C41.1247 44.0136 40.4294 43.8319 39.891 43.4686C39.3526 43.1019 39.0223 42.5817 38.9 41.9078L40.3319 41.6898C40.4211 42.0631 40.6045 42.3455 40.8819 42.5371C41.1594 42.7254 41.5211 42.8195 41.967 42.8195C42.4526 42.8195 42.8407 42.7188 43.1313 42.5173C43.422 42.3125 43.5674 42.0631 43.5674 41.7691C43.5674 41.5313 43.4782 41.3314 43.2998 41.1696C43.1247 41.0077 42.8555 40.8855 42.4922 40.8029L41.204 40.5205C40.4938 40.3587 39.9686 40.101 39.6284 39.7476C39.2915 39.3942 39.123 38.9466 39.123 38.4049C39.123 37.9557 39.2485 37.5626 39.4996 37.2257C39.7506 36.8887 40.0974 36.6262 40.54 36.4379C40.9827 36.2463 41.4897 36.1505 42.0611 36.1505C42.8836 36.1505 43.531 36.3289 44.0034 36.6856C44.4757 37.039 44.7879 37.513 44.9398 38.1076Z" fill="black"/>
<path d="M32.6759 1.39716H12.1279C10.4256 1.39716 9.04565 2.77711 9.04565 4.47936V20.9178C9.04565 22.6201 10.4256 24 12.1279 24H32.6759C34.3782 24 35.7581 22.6201 35.7581 20.9178V4.47936C35.7581 2.77711 34.3782 1.39716 32.6759 1.39716Z" stroke="black" stroke-width="1.2306" stroke-linejoin="round"/>
<path d="M27.5389 9.61635C28.6738 9.61635 29.5937 8.69639 29.5937 7.56155C29.5937 6.42671 28.6738 5.50674 27.5389 5.50674C26.4041 5.50674 25.4841 6.42671 25.4841 7.56155C25.4841 8.69639 26.4041 9.61635 27.5389 9.61635Z" stroke="black" stroke-width="1.2306" stroke-miterlimit="10"/>
<path d="M25.4841 17.8221L19.6626 12.0115C19.2921 11.6411 18.7942 11.4262 18.2706 11.4107C17.747 11.3952 17.2373 11.5802 16.8456 11.928L9.04565 18.863M20.3471 24L28.2671 16.08C28.6293 15.7171 29.1141 15.5027 29.6263 15.4789C30.1385 15.4552 30.641 15.6238 31.0353 15.9516L35.7581 19.8904" stroke="black" stroke-width="1.2306" stroke-linecap="round" stroke-linejoin="round"/>
</svg>
