<svg width="42" height="44" viewBox="0 0 42 44" fill="none" xmlns="http://www.w3.org/2000/svg">
<path d="M0.114803 43.0229V32.8757H3.73172C4.52117 32.8757 5.17518 33.0194 5.69377 33.3068C6.21236 33.5941 6.60048 33.9872 6.85812 34.486C7.11577 34.9814 7.24459 35.5397 7.24459 36.1607C7.24459 36.7849 7.11412 37.3465 6.85317 37.8452C6.59553 38.3407 6.20576 38.7338 5.68387 39.0245C5.16528 39.3118 4.51291 39.4555 3.72677 39.4555H1.23952V38.1574H3.58804C4.08681 38.1574 4.49144 38.0715 4.80193 37.8997C5.11243 37.7247 5.34034 37.4869 5.48568 37.1863C5.63101 36.8857 5.70368 36.5438 5.70368 36.1607C5.70368 35.7775 5.63101 35.4373 5.48568 35.14C5.34034 34.8427 5.11077 34.6098 4.79698 34.4414C4.48648 34.2729 4.0769 34.1887 3.56822 34.1887H1.6458V43.0229H0.114803ZM8.92051 43.0229V35.4125H10.3524V36.6214H10.4317C10.5704 36.2119 10.8149 35.8898 11.165 35.6553C11.5184 35.4175 11.9181 35.2985 12.364 35.2985C12.4565 35.2985 12.5655 35.3018 12.691 35.3084C12.8198 35.3151 12.9206 35.3233 12.9933 35.3332V36.7503C12.9338 36.7337 12.8281 36.7156 12.6762 36.6958C12.5242 36.6726 12.3723 36.6611 12.2203 36.6611C11.8702 36.6611 11.5581 36.7354 11.2839 36.884C11.013 37.0294 10.7983 37.2325 10.6398 37.4935C10.4812 37.7511 10.402 38.0451 10.402 38.3754V43.0229H8.92051ZM17.2085 43.1765C16.495 43.1765 15.8723 43.013 15.3405 42.686C14.8087 42.359 14.3958 41.9015 14.1019 41.3135C13.8079 40.7256 13.6609 40.0385 13.6609 39.2524C13.6609 38.4629 13.8079 37.7726 14.1019 37.1813C14.3958 36.5901 14.8087 36.1309 15.3405 35.8039C15.8723 35.4769 16.495 35.3134 17.2085 35.3134C17.9219 35.3134 18.5446 35.4769 19.0764 35.8039C19.6082 36.1309 20.0211 36.5901 20.315 37.1813C20.609 37.7726 20.756 38.4629 20.756 39.2524C20.756 40.0385 20.609 40.7256 20.315 41.3135C20.0211 41.9015 19.6082 42.359 19.0764 42.686C18.5446 43.013 17.9219 43.1765 17.2085 43.1765ZM17.2134 41.9329C17.6758 41.9329 18.059 41.8106 18.3629 41.5662C18.6668 41.3218 18.8914 40.9964 19.0367 40.5901C19.1854 40.1839 19.2597 39.7363 19.2597 39.2474C19.2597 38.7619 19.1854 38.3159 19.0367 37.9097C18.8914 37.5001 18.6668 37.1714 18.3629 36.9237C18.059 36.6759 17.6758 36.5521 17.2134 36.5521C16.7477 36.5521 16.3612 36.6759 16.054 36.9237C15.7501 37.1714 15.5239 37.5001 15.3752 37.9097C15.2299 38.3159 15.1572 38.7619 15.1572 39.2474C15.1572 39.7363 15.2299 40.1839 15.3752 40.5901C15.5239 40.9964 15.7501 41.3218 16.054 41.5662C16.3612 41.8106 16.7477 41.9329 17.2134 41.9329ZM26.0315 35.4125V36.6016H21.7308V35.4125H26.0315ZM22.9101 43.0229V34.5306C22.9101 34.0549 23.0141 33.6602 23.2222 33.3464C23.4303 33.0293 23.7061 32.7931 24.0496 32.6379C24.3932 32.4793 24.7664 32.4001 25.1694 32.4001C25.4667 32.4001 25.721 32.4248 25.9324 32.4744C26.1438 32.5206 26.3007 32.5636 26.4031 32.6032L26.0563 33.8022C25.9869 33.7824 25.8977 33.7593 25.7887 33.7329C25.6797 33.7031 25.5476 33.6883 25.3923 33.6883C25.0323 33.6883 24.7747 33.7775 24.6194 33.9558C24.4675 34.1342 24.3915 34.3918 24.3915 34.7288V43.0229H22.9101ZM27.56 43.0229V35.4125H29.0415V43.0229H27.56ZM28.3082 34.2382C28.0505 34.2382 27.8292 34.1524 27.6443 33.9806C27.4626 33.8055 27.3717 33.5974 27.3717 33.3563C27.3717 33.1119 27.4626 32.9038 27.6443 32.732C27.8292 32.5569 28.0505 32.4694 28.3082 32.4694C28.5658 32.4694 28.7855 32.5569 28.9672 32.732C29.1521 32.9038 29.2446 33.1119 29.2446 33.3563C29.2446 33.5974 29.1521 33.8055 28.9672 33.9806C28.7855 34.1524 28.5658 34.2382 28.3082 34.2382ZM32.5159 32.8757V43.0229H31.0345V32.8757H32.5159ZM37.789 43.1765C37.0392 43.1765 36.3934 43.0163 35.8517 42.6959C35.3133 42.3722 34.8971 41.918 34.6031 41.3333C34.3124 40.7454 34.1671 40.0567 34.1671 39.2672C34.1671 38.4877 34.3124 37.8007 34.6031 37.2061C34.8971 36.6115 35.3067 36.1474 35.8319 35.8138C36.3604 35.4802 36.978 35.3134 37.6849 35.3134C38.1143 35.3134 38.5305 35.3844 38.9335 35.5265C39.3365 35.6685 39.6982 35.8915 40.0186 36.1953C40.339 36.4992 40.5917 36.8939 40.7766 37.3795C40.9616 37.8618 41.0541 38.4481 41.0541 39.1384V39.6636H35.0044V38.5538H39.6024C39.6024 38.164 39.5231 37.8188 39.3645 37.5182C39.206 37.2144 38.983 36.9749 38.6957 36.7998C38.4116 36.6247 38.078 36.5372 37.6948 36.5372C37.2786 36.5372 36.9153 36.6396 36.6048 36.8444C36.2976 37.0459 36.0598 37.3101 35.8913 37.6371C35.7262 37.9609 35.6436 38.3126 35.6436 38.6925V39.5596C35.6436 40.0682 35.7328 40.501 35.9111 40.8577C36.0928 41.2144 36.3455 41.4869 36.6692 41.6752C36.9929 41.8602 37.3711 41.9527 37.8038 41.9527C38.0846 41.9527 38.3406 41.913 38.5718 41.8338C38.803 41.7512 39.0029 41.629 39.1713 41.4671C39.3398 41.3053 39.4686 41.1054 39.5578 40.8676L40.96 41.1203C40.8476 41.5332 40.6462 41.8949 40.3555 42.2054C40.0681 42.5126 39.7064 42.752 39.2704 42.9238C38.8377 43.0923 38.3439 43.1765 37.789 43.1765Z" fill="black"/>
<path d="M25.3701 6.42001C25.165 9.18625 23.0679 11.4429 20.7658 11.4429C18.4636 11.4429 16.3629 9.18677 16.1615 6.42001C15.9522 3.54233 17.9927 1.39716 20.7658 1.39716C23.5388 1.39716 25.5793 3.59466 25.3701 6.42001Z" stroke="black" stroke-width="1.2306" stroke-linecap="round" stroke-linejoin="round"/>
<path d="M20.7658 14.7914C16.2138 14.7914 11.5939 17.3029 10.7389 22.0432C10.6359 22.6145 10.9592 23.1629 11.5572 23.1629H29.9744C30.5729 23.1629 30.8963 22.6145 30.7932 22.0432C29.9378 17.3029 25.3178 14.7914 20.7658 14.7914Z" stroke="black" stroke-width="1.2306" stroke-miterlimit="10"/>
</svg>
