<svg width="247" height="256" viewBox="0 0 247 256" fill="none" xmlns="http://www.w3.org/2000/svg">
<path fill-rule="evenodd" clip-rule="evenodd" d="M72.6073 60.2639V4.13195V0H110.943V9.1612C110.943 25.0253 112.604 29.0589 120.527 32.4595C125.795 34.721 180.905 47.1169 242.987 60.0023C244.328 60.2808 245.666 60.5586 247 60.8357V101.556C231.022 97.623 213.41 93.3827 195.068 89.0682L72.6073 60.2639ZM247 132.614L172.705 115.008C104.766 98.9073 48.2217 84.9714 47.0503 84.039C45.879 83.1065 43.9622 53.163 42.7908 17.5025L42.2159 0H0.407933L1.16285 46.5642L2.32569 118.286L126.507 144.453C180.631 155.858 228.277 166.425 247 171.104V132.614ZM247 256V213.797L192.938 212.859L125.851 211.699L124.573 187.438L123.295 163.178H100.081H76.8667V209.589V256H187.737H247ZM247 28.0588V0H245.522L246.394 16.5616L247 28.0588ZM6.58518 230.896L5.36271 190.375C4.14023 149.867 4.14022 149.854 13.8817 152.858C27.2327 156.98 34.4421 158.631 38.3252 163.144C43.4128 169.056 42.7908 179.882 42.7908 207.614V252.258L24.688 241.579L6.58518 230.896Z" fill="url(#paint0_linear_0_1)" fill-opacity="0.2"/>
<defs>
<linearGradient id="paint0_linear_0_1" x1="-172.62" y1="-216.294" x2="446.258" y2="441.992" gradientUnits="userSpaceOnUse">
<stop offset="0.359653" stop-color="#284928"/>
<stop offset="0.517801" stop-color="#00FF1C"/>
<stop offset="0.708225" stop-color="#284928"/>
</linearGradient>
</defs>
</svg>
